<svg xmlns="http://www.w3.org/2000/svg" xmlns:xlink="http://www.w3.org/1999/xlink" width="16px" height="16px" viewBox="0 0 16 16" version="1.1">
<g id="surface1">
<path style="fill:none;stroke-width:2;stroke-linecap:round;stroke-linejoin:round;stroke:rgb(0%,0%,0%);stroke-opacity:1;stroke-miterlimit:10;" d="M 32.36084 36.120605 L 35.192871 40.002441 C 37.121582 39.941406 44.433594 38.500977 46.99707 33.996582 C 46.99707 24.414062 42.834473 13.244629 41.003418 11.547852 C 37.207031 8.496094 31.005859 7.995605 31.005859 7.995605 C 31.005859 7.995605 30.505371 9.106445 30.371094 10.473633 " transform="matrix(0.32,0,0,0.32,0,0)"/>
<path style="fill:none;stroke-width:2;stroke-linecap:round;stroke-linejoin:round;stroke:rgb(0%,0%,0%);stroke-opacity:1;stroke-miterlimit:10;" d="M 34.997559 26.000977 C 34.997559 23.791504 33.435059 21.99707 31.494141 21.99707 C 29.56543 21.99707 28.00293 23.791504 28.00293 26.000977 C 28.00293 28.210449 29.56543 30.004883 31.494141 30.004883 C 33.435059 30.004883 34.997559 28.210449 34.997559 26.000977 Z M 34.997559 26.000977 " transform="matrix(0.32,0,0,0.32,0,0)"/>
<path style="fill:none;stroke-width:2;stroke-linecap:round;stroke-linejoin:round;stroke:rgb(0%,0%,0%);stroke-opacity:1;stroke-miterlimit:10;" d="M 19.628906 10.473633 C 19.494629 9.106445 18.994141 7.995605 18.994141 7.995605 C 18.994141 7.995605 12.792969 8.496094 8.996582 11.547852 C 7.165527 13.244629 3.00293 24.414062 3.00293 33.996582 C 5.566406 38.500977 12.878418 39.941406 14.807129 40.002441 L 17.63916 36.120605 " transform="matrix(0.32,0,0,0.32,0,0)"/>
<path style="fill:none;stroke-width:2;stroke-linecap:round;stroke-linejoin:round;stroke:rgb(0%,0%,0%);stroke-opacity:1;stroke-miterlimit:10;" d="M 10.510254 32.763672 C 10.510254 32.763672 15.307617 36.999512 25 36.999512 C 34.692383 36.999512 39.489746 32.763672 39.489746 32.763672 " transform="matrix(0.32,0,0,0.32,0,0)"/>
<path style="fill:none;stroke-width:2;stroke-linecap:round;stroke-linejoin:round;stroke:rgb(0%,0%,0%);stroke-opacity:1;stroke-miterlimit:10;" d="M 38.049316 13.427734 C 33.14209 10.375977 27.124023 9.997559 25 9.997559 C 22.875977 9.997559 16.85791 10.375977 11.950684 13.427734 " transform="matrix(0.32,0,0,0.32,0,0)"/>
<path style="fill:none;stroke-width:2;stroke-linecap:round;stroke-linejoin:round;stroke:rgb(0%,0%,0%);stroke-opacity:1;stroke-miterlimit:10;" d="M 21.99707 26.000977 C 21.99707 23.791504 20.43457 21.99707 18.505859 21.99707 C 16.564941 21.99707 15.002441 23.791504 15.002441 26.000977 C 15.002441 28.210449 16.564941 30.004883 18.505859 30.004883 C 20.43457 30.004883 21.99707 28.210449 21.99707 26.000977 Z M 21.99707 26.000977 " transform="matrix(0.32,0,0,0.32,0,0)"/>
</g>
</svg>
